<?xml version="1.0" encoding="UTF-8"?>
<svg version="1.1" viewBox="0 0 896 900" width="224" height="225" xmlns="http://www.w3.org/2000/svg">
<path transform="translate(0)" d="m0 0h896v900h-896z" fill="#FCF9F3"/>
<path transform="translate(444,66)" d="m0 0 3 3 6 16 7 16 2 1v-6l9-10 9-6 7-1h13l11 2 16 8 13 6h18l9-3 9-1-1 5-5 8-7 6-5 2h-19v16l-9 3h-5l-4-9h-2l-7 8-7 6-4 1-12-6-5-4-3-6v-5l7 7h8l5-3 3-5v-9l-3-6v-2l-6-2h-14l-8 3-6 5-2 3v6l8 15 13 18 9 11 4 6 2 1 1-8 6-12 5-4 12-3 25-1 13-2 6-3 6-9 4-9 2-14h2l2 11v8l7-3 9-6h2l-2 4-6 9-4 11v8l4 10 13 15 8 8 6 10 1 3v12l-7 13 30-4 22-5 13-4h2l-3-16-6-11-6-5-2-1h-8l-7 4-5 8v7l5 5 6 3 5 2v1l-9 1-13-2-6-4-2-5v-16l-9 1-6-7-1-9 2-4 6-2-3-5-8-8-4-9v-15l3-7 4 2 3 8 7 11 9 8 13 6 23 8 10 9 6 9 4 12 1 5v8l-3 1-2 4 7-3 16-7 9-4h3l-1 6-5 14-6 9-1 4 8-1h10l13 4 9 6 7 10 5 11 5 17 7 11 12 10 15 7-1 3-11 4h-8l-9-4-8-6-4-5v-2l-4 2-5 5-4 3-6-1-4-2-1-7 1-8-6 1h-10l-5-3-6-10-1-3v-9l3-5h2v8l3 6 4 3 9-1 6-5 3-7v-8l-6-8-9-6-3-1-14-1-3 9-4 13-4 21-1 8v15l9-6 4-1h12l8 4 10 9 10 10 10 7 5 2h11l14-7 8-6-1 5-5 8-2 4 15 3 1 3-17 4-9 6-6 7-3 12v28l-4 11-7 7-8 4h-9v4l6 2 12 10 17 11 16 9 7 1 7-6 4-9v-14l-4-6-6-4h-11l-7 2-1 9 3 7 2 4-2 1-6-4-4-5-2-6v-7l4-8 7-6v-3l-6-2-1-3v-8l1-6 15-1 3-21 5-8 6-5 7-3h3l-1 5-4 14-1 13 3 12 12 26 2 8-1 11-5 13-7 9-6 5-3 2 27 11 2 4-4 3-25 10 4 2 8 7 6 10 3 9v19l-5 12-8 15-4 12v8l4 14 3 7v3l-6-1-8-6-6-7-3-8v-17l-4 1h-9l-3-3-1-4v-9l5-3-1-5-5-3-2-6v-15l3-6 5-4 4 1-1 4-2 4v10l4 4h15l4-2 4-8v-17l-6-10-4-3-5 1-17 8-12 8-15 11-8 7v1l8 2 6 2v2l4 1 4 4 4 11 1 6 1 28 3 10 5 6 7 4 19 5-1 2-16 3 9 15-1 2-10-8-7-4-5-1h-8l-12 6-12 11-10 9-7 6h-6l-2-1 3 5v5l-3 1-18-18-2 18-3 3h2l3 12 4 18 6 18 4 9 8 20 3 4-1 4-9-1-16-7-8-4 3 8v11l-5 12-6 8-8 8-12 6-20 7-10 6-7 8-9 18h-2l-4-13 2-12 5-9 4-5h2l-1-7-4-5v-8l4-5 2-1h10v-13l3-6 7-6 6-2 10 1 3 1v2l-10 2-7 6 1 8 4 6 3 3 3 1h9l8-4 8-11 1-2v-9l-3-6-6-4-19-5-11-2-27-2 8 16v9l-5 10-18 20-7 9-2 5v11l5 12 7 9-1 3-5-4-9-6-3-1-1 18-2 1-2-5-2-11-6-12-6-5-5-2-7-1-24-1-13-2-8-5-4-5-5-14h-2l-2 4-9 11-12 17-9 16-1 3v7l5 6 7 3h17l5-2 3-5 2-5v-11l-5-6h-7l-7 4-2 3-3-1 3-6 8-7 6-2h10l5 3 5 8 2 1 2-5 5-4 8 1 5 3 1 14 20 2 6 4 8 8 3 9-6-2-11-4h-19l-12 4-13 8-11 4h-18l-9-3-6-4-9-10-3-4-11 26-3 9-2-1-10-28-3-7-4 7-9 9-8 4-7 2h-16l-10-3-21-11-6-2h-12l-16 4-5 3h-2l1-7 4-8 7-5 8-3 16-1 1-1v-12l6-4 8-1 7 8 3-3 4-6 8-2 9 1 6 3 7 7 1 4-5-2-5-3h-8l-5 5-1 2v8l4 11 3 2h14l13-4 5-8h2l-8-18-12-17-9-11-10-11v9l-4 9-8 6-8 3-6 1-29 1-10 4-8 9-4 9-1 13-2-1-3-10v-7l-5 1-5 5-5 3h-2l2-5 7-11 2-6v-10l-4-9-7-9-2-4-4-2-10-11-5-10v-11l5-10 3-4-15 1-19 3-25 6-7 3v11l3 11 7 8 5 2h8l8-5 6-6-1-9h-2v-2l-5-2-10-2v-2l2-1h15l8 4 6 10-1 11 12 1 4 5 1 2v6l-5 6-3 2 1 4 6 5 8 15 1 6-6 15-3-3-8-16-9-10-8-5-27-9-11-7-7-8-3-8-1-4v-16l1-7-8 3-15 8-6 2h-4l1-6 6-12 5-13 6-16 6-19 2-12v-7l-4-4-3-6h-10l-3 8h-7l2-12-8-5-7-6-4-5-8-7-9-6-4-2h-12l-11 4-10 7-1-2 9-13v-1l-15-2-1-2 17-6 10-6 5-10 2-13 1-30-13 4-16 6-13 7-12 6-4-2-2-4 7-6 6-4h2v-2l-6-1-5-10-2-11v-12l4-13 9-10 7-5-3-2-19-7-8-5 1-3 29-12h3v-2l-6-1-12-12-4-9-1-4v-15l3-10 10-21 3-12v-17l-6-11-2-4 7 1 9 6 6 7 3 6 1 8-1 9h10l5 3 2 3v10l-6 4v4l9 5 2 4-1 15-3 5-7 6-5 3-1-4 5-14v-6l-4-2h-11l-7 3-4 5-2 6v8l4 10 8 7 7-1 17-9 16-11 17-13 1-2-9-1-10-5-5-5-4-14-1-31-3-9-6-7-12-6-12-2v-3l16-2-2-5-7-10v-2l4 2 9 7 8 3h12l10-5 12-11 9-9 10-6 3-1h11l12 6h2l-3-26-5-23-4-12-1-2h-16l-7 3-7 9-2 4v7l4 7 7 5h7l5-5 1-2 1-9 3 1 2 4v10l-6 9-7 5-9 1h-4l-2 10-5 4-6 2-4-2-4-6v-2l-5 3-4 5-11 7-6 2h-7l-9-4-3-3 10-4 13-8 7-8 14-35 7-11 8-6 9-3h22l-10-24-4-7v-2l6 1 28 13 3 1-4-10v-7l4-14 6-10 7-6 14-7 15-4 11-6 8-6 10-20 4-1 4 12v9l-5 9-7 7-5 3h-2l3 3 9 7 2 5-7 8-12 1 1 11-3 7-5 6-9 3h-7l-6-2v-2l10-3 5-5 1-7-3-5v-2l-4-2-7-3h-7l-7 5-7 10-2 5 1 14 11 3 21 5 33 4-7-14v-12l6-11 13-13 7-8 5-9 1-3v-10l-8-16-4-6 1-2 13 9h3l4-18h2l3 19 6 11 5 4 4 2 6 1 32 1 8 2 6 4 7 10 2 9 4-2 14-18 9-14 9-19-1-5-8-7-4-1h-14l-9 2-4 10v9l6 7 7 1 5-3 4-3 2 1-4 8-5 5-7 1h-10l-5-3-5-9-3 1-6 7-5 1-7-5-2-10-1-4h-15l-8-3-8-7-6-10v-2h6l15 5 11 1 12-3 8-4 10-6 13-4h13l13 4 6 4 6 5 3 5v3h3l3-10 8-23z" fill="#DDD28B"/>
<path transform="translate(444,111)" d="m0 0h2l6 15 8 15 11 16 8 10v2h2l7 8 9 10 12 17 9 19 2 9v18l-6 16-4 8-11 12-9 10-6 6h-2l3 9 4 6 4-1 11-9 4-5h3l2 25 8-1 9-3-1-22 2-21 6-15 8-11 9-8 8-5 19-7 15-2 43-4 20-4 30-10h3l-6 12-6 22-3 17-5 53-12 12-9 16-6 16-1 4v7l4 8 8 8 1 3v15l-2 7-1 8-3-1-14-20-9-11-11-12-13-13-13-10-14-8-7-1-6 16-1 10 5 12 10 17 4 1 5-5 1-5 4 1 8 7 15 15 11 14 9 12 5 7v5l-8 10-11 11-3 2h-6l-3-5-1-7-2-2h-6l-3 12-1 8h-2l2 19h-12l2 5 10 10 5 6 3 2v2l-17 1-10 2 1 7 2 8h22l23 2 8 2 10 5 14 14 8 13 5 12 2 9v13l-3 2h-8l-1-1 1-9-6 1-1-2 1-5v-7l-6-12-6-5-7-3h-8l-8 3-4 4 12 1 6 4 2 2v9l-6 8-9 6 1 3 5 1 3 1h12l8-5h4l1 11h21l-1 5-6 9-7 6-2 1v5l7-3 7-4h1l2 21 6 23 7 19 1 4-15-7-20-6-18-3-34-2-24-3-19-7-11-7-8-8-5-10v-8h7l-6-9-2-5 3-3 4-7v-7l-1-2-5-1 1 8-4 8h-3l-2-2 1-4 3-10-1-2-2-13-6-4-6-2h-5l-2 20h-2v2l-5-1-10-8-5-1-4 5-2 4-5 2-2 5 23 2 1 1 1 26h11l4 2 4 21v12l-2 12-4 11-9 14-10 13-11 13-9 10-13 19-11 20-5 13-3-3-7-16-6-11-12-18-12-14-10-11-13-18-8-15-4-16v-17l4-15 2-3 5-1h13v-13l1-2 7 1 4 12 6 1-3-13-2-5 6-4-2-11-7-4-2-7-4-1-4 1-1 4-8 5-5-2-1-2-2-16-16 2-1 1 1 14-2 7-9 29-2 3h6l1 2-6 9-11 11-15 9-11 4-10 2-54 5-20 4-18 6-5 2h-4l1-7 5-15 7-25 1-7h13v-6l-3-1-12-1 1-26 4-18 7-19 6-9 8-9 12 3 5 1h8l13-3 9-7 12-12 11-14 5-5 13-3 12-1 5 3 4 4 9 3 13 2 11 6 16 13 15 11 10 5 8 2h10l12-4 9-7 10-10 13-17 11-18 5-5 9 3 21 2 9 2 7-8 5-11 4-14 3-20v-25l-5-26-7 1v43l-4 16-3 6-3 2-5 1h-16l-6-3-3-7-3-18-6-15-7-12-7-8-9-5-4-1h-8l-8 4-7 10-10 21-5 19v14l4 10 8 7 5 2 6 1h10l9-3 5 1-4 7-11 12-8 7-10 5-9 3-11 1-12-3-16-8-21-9-17-4-10-1 1-5 7-15 3-17 1-14-2-20-6-37-3-21v-15l4-15 8-15 14-17 2-3v-7l10 5 11 7h2l4-9 1-7-7-7-8-7-8-9-8-13-5-10-1-3v-20l4-15 8-16 10-13 13-15 7-8 10-13 12-19 7-16z" fill="#FBF8F2"/>
<path transform="translate(376,306)" d="m0 0 4 2 1 5-11 14-6 8-8 16-3 12v15l3 21 6 37 2 20-2 22-3 12-8 17h10l17 4 21 9 16 8 12 3 11-1 16-6 9-7 9-9 7-10-4-1-9 3h-10l-9-2-6-4-6-7-3-8v-14l5-19 11-23 7-9 8-4h8l10 4 9 8 8 13 6 14 3 14 2 11 4 4 3 1h16l8-2 3-9 3-13 1-43 7-1 4 15 2 11v25l-4 25-6 16-6 9-4 4-9-2-21-2-10-3-6 9-10 16-9 11-9 10-7 7-9 5-9 3h-10l-13-4-12-8-9-7-15-12-11-6-16-3-7-3-5-5-7-1-13 2-10 3-11 14-9 10-9 9-9 5-10 2h-8l-13-3-4-1-9 10-7 14-5 15-3 15-1 23-1 3h12l3 2v6h-13v7l-7 25-7 22 20-7 20-5 31-3 36-4 13-4 14-8 10-9 7-8 2-5-6-1 3-10 7-22 2-7-1-14 2-2 16-2 1 1 2 16 3 3 4-2 6-2 1-4 6-2 4 4v5l6 2 3 5 1 8-6 4 2 5 2 8v5h-6l-3-8-1-5-7-1-1 15-18 2-4 12-1 5v17l4 16 9 17 10 13 9 10 18 22 12 19 9 19 2 5 4-9 8-16 9-15 10-13 9-10 11-13 13-18 6-12 3-10 1-8v-12l-4-21-9-1h-5l-1-1-1-26-21-2-2-1 2-6 5-2 3-6 3-3 6 2 11 8 3 1v-2h2v-11l1-9 1-1 8 1 6 3 4 3 2 13 1 3-4 10 1 4h3l3-7-1-8 3-1 4 2 1 2v7l-6 10h-2l8 12v2h-7l2 11 6 9 9 8 14 7 12 4 24 3 34 2 22 4 21 7 9 5-6-16-7-25-2-11-1-13-9 5-5 1-1-5 9-7 6-9 2-5h-21l-1-11-8 3-4 3h-12l-8-3v-2l-2-1 3-3 7-4 5-7v-9l-5-4-2-1-10-1-2-1 2-4 7-3 3-1h8l10 5 6 7 4 9v7l-1 6h6v9h8l3-1-1-13-3-11-5-12-7-11-14-14-11-5-15-2-36-2-4-11 1-5 10-2h17l-5-5-12-13-3-3v-4h12l-2-10v-9h2v-8l3-10 3-3 5 1 2 2 2 9 1 2h6l10-9 9-10 2-3v-5l-8-11-7-9-8-10-9-10-13-13-6-3-1 7-5 4-5-2-10-17-5-12 1-10 6-16 5-1 14 7 12 9 12 11 14 14 11 14 11 15 4 6 2 1v-8l2-7v-15l-3-5-7-7-3-7v-7l5-15 8-16 6-8 8-7 8-3h17l11 6 1-5 7-7 6-3 4 1 3 3v7l-2 8 6 2 2 3v13l11 3 4 4 3 13v16l-1 1h-5l-3-4-2-11-4-7-6-1-3 5-1 3v19l6 34 4 35-1 16-3 17-8 15-1 5 3 7 3 3h7l3-2h8l8 3v2l4 1 4 4 4 11 1 6 1 28 3 10 5 6 7 4 19 5-1 2-16 3 9 15-1 2-10-8-7-4-5-1h-8l-12 6-12 11-10 9-7 6h-6l-2-1 3 5v5l-3 1-18-18-2 18-3 3h2l3 12 4 18 6 18 4 9 8 20 3 4-1 4-9-1-16-7-8-4 3 8v11l-5 12-6 8-8 8-12 6-20 7-10 6-7 8-9 18h-2l-4-13 2-12 5-9 4-5h2l-1-7-4-5v-8l4-5 2-1h10v-13l3-6 7-6 6-2 10 1 3 1v2l-10 2-7 6 1 8 4 6 3 3 3 1h9l8-4 8-11 1-2v-9l-3-6-6-4-19-5-11-2-27-2 8 16v9l-5 10-18 20-7 9-2 5v11l5 12 7 9-1 3-5-4-9-6-3-1-1 18-2 1-2-5-2-11-6-12-6-5-5-2-7-1-24-1-13-2-8-5-4-5-5-14h-2l-2 4-9 11-12 17-9 16-1 3v7l5 6 7 3h17l5-2 3-5 2-5v-11l-5-6h-7l-7 4-2 3-3-1 3-6 8-7 6-2h10l5 3 5 8 2 1 2-5 5-4 8 1 5 3 1 14 20 2 6 4 8 8 3 9-6-2-11-4h-19l-12 4-13 8-11 4h-18l-9-3-6-4-9-10-3-4-11 26-3 9-2-1-10-28-3-7-4 7-9 9-8 4-7 2h-16l-10-3-21-11-6-2h-12l-16 4-5 3h-2l1-7 4-8 7-5 8-3 16-1 1-1v-12l6-4 8-1 7 8 3-3 4-6 8-2 9 1 6 3 7 7 1 4-5-2-5-3h-8l-5 5-1 2v8l4 11 3 2h14l13-4 5-8h2l-8-18-12-17-9-11-10-11v9l-4 9-8 6-8 3-6 1-29 1-10 4-8 9-4 9-1 13-2-1-3-10v-7l-5 1-5 5-5 3h-2l2-5 7-11 2-6v-10l-4-9-7-9-2-4-4-2-10-11-5-10v-11l5-10 3-4-15 1-19 3-25 6-7 3v11l3 11 7 8 5 2h8l8-5 6-6-1-9h-2v-2l-5-2-10-2v-2l2-1h15l8 4 6 10-1 11 12 1 4 5 1 2v6l-5 6-3 2 1 4 6 5 8 15 1 6-6 15-3-3-8-16-9-10-8-5-27-9-11-7-7-8-3-8-1-4v-16l1-7-8 3-15 8-6 2h-4l1-6 6-12 5-13 6-16 6-19 2-12v-7l-4-4-3-6h-10l-3 8h-7l2-12-8-5-7-6-4-5-8-7-9-6-4-2h-12l-11 4-10 7-1-2 9-13v-1l-15-2-1-2 17-6 10-6 5-10 2-13 1-30-13 4-16 6-13 7-12 6-4-2-2-4 7-6 13-8 22-10 27-9 20-5 14-2h25l17 3 14 5 19 9 8 2h7l10-3 12-7 14-11 11-11 7-11 3-9-1-7-6-11-11-14-3-3v-7l8-26 2-2 7 1 7 7 7 10 5 11 3 9 1 7v21l-3 19-6 20 12-3 3-9 5-20 1-17-4-26-6-32-2-15v-12l4-12 16-32 6-10 8-10 7-6z" fill="#DDD18B"/>
<path transform="translate(376,306)" d="m0 0 4 2 1 5-11 14-6 8-8 16-3 12v15l3 21 6 37 2 20-2 22-3 12-8 17h10l17 4 21 9 16 8 12 3 11-1 16-6 9-7 9-9 7-10-4-1-9 3h-10l-9-2-6-4-6-7-3-8v-14l5-19 11-23 7-9 8-4h8l10 4 9 8 8 13 6 14 3 14 2 11 4 4 3 1h16l8-2 3-9 3-13 1-43 7-1 4 15 2 11v25l-4 25-6 16-6 9-4 4-9-2-21-2-10-3-6 9-10 16-9 11-9 10-7 7-9 5-9 3h-10l-13-4-12-8-9-7-15-12-11-6-16-3-7-3-5-5-7-1-13 2-10 3-11 14-9 10-9 9-9 5-10 2h-8l-10-3-13-7-9-7-11-9-13-8-19-9-3-1h-11l-18 3-31 8-24 9-13 7-12 6-4-2-2-4 7-6 13-8 22-10 27-9 20-5 14-2h25l17 3 14 5 19 9 8 2h7l10-3 12-7 14-11 11-11 7-11 3-9-1-7-6-11-11-14-3-3v-7l8-26 2-2 7 1 7 7 7 10 5 11 3 9 1 7v21l-3 19-6 20 12-3 3-9 5-20 1-17-4-26-6-32-2-15v-12l4-12 16-32 6-10 8-10 7-6z" fill="#382013"/>
<path transform="translate(199,215)" d="m0 0 7 1 21 7 25 5 32 3 20 2 17 4 13 7 10 8 8 9 5 10 3 11 1 24 1 14-7 11-16 32-4 10-1 4v12l4 27 6 31 2 15-1 17-7 28-2 2-12 2 1-6 5-18 2-15v-21l-2-10-5-13-6-10-9-10-11-2-2-4-7-6v-2l2-1 21-1-1-9-3-8h-33l-18-4-10-5-9-7-7-7-9-19-4-16-2-15-3-35-3-16-5-19-4-11z" fill="#FBF8F2"/>
<path transform="translate(221,385)" d="m0 0h16l10 3 11 6 12 9 16 17 2 1h6l2-2v8l-2 7v7l9 10 9 14 3 7-1 7-4 10-8 10-11 11-15 11-14 7-5 1h-7l-13-4-8-4-1-4 7-5 5-12 2-10-5 10-6 4-5 1-7-2-4-4-1-2v-16h-8l-5 3-4 8v17l-27-1-5-6-13-9-7-6-14-10-17-10-15-6 1-3 16-7 18-10 14-11 13-11 14-12 12-9 15-8z" fill="#FCF9F3"/>
<path transform="translate(720,308)" d="m0 0 4 1 3 3v7l-2 8 6 2 2 3v13l11 3 4 4 3 13v16l-1 1h-5l-3-4-2-11-4-7-6-1-3 5-1 3v19l6 34 4 35-1 16-3 17-8 15-1 5 3 7 5 4 12 4h13v6l-3 3h-19l-10-3-9-6-5-10v-9l5-20 2-16-1-13-5-28-4-20-4-23-1-29h-2l-2 1-6-4v-5l4-5 7-1-2-5-8-7-4-2h-7l-8 4-7 8-3 8 1 7 5 5 11 7 8 4-2 10-4 12-4 6-6-1-1 11-5 21-4 11 1 5 4 12 1 7v15l-2 16-4 11-6 5-4 1h-38l-10-4-6-5-3-7-1-6 1-16 3-10 3-3 5 1 2 2 2 9 1 2h6l10-9 9-10 2-3v-5l-8-11-7-9-8-10-9-10-13-13-6-3-1 7-5 4-5-2-10-17-5-12 1-10 6-16 5-1 14 7 12 9 12 11 14 14 11 14 11 15 4 6 2 1v-8l2-7v-15l-3-5-7-7-3-7v-7l5-15 8-16 6-8 8-7 8-3h17l11 6 1-5 7-7z" fill="#382013"/>
<path transform="translate(812,328)" d="m0 0h3l-1 5-4 14-1 13 3 12 12 26 2 8-1 11-5 13-7 9-6 5-3 2 27 11 2 4-4 3-25 10 4 2 8 7 6 10 3 9v19l-5 12-8 15-4 12v8l4 14 3 7v3l-6-1-8-6-6-7-3-8v-17l-4 1h-9l-3-3-1-4v-9l5-3-1-5-5-3-2-6v-15l3-6 5-4 4 1-1 4-2 4v10l4 4h15l4-2 4-8v-17l-6-10-4-3-5 1-17 8-12 8-15 11-8 7v2l-5 3h-7l-6-7-1-6 8-16 3-11 2-18-1-17-3-24-6-34v-19l3-7 2-2 6 1 5 8 3 13 1 3 4 1-2 6-6 5-7 1 2 7 4 1v3l6 2 12 10 17 11 16 9 7 1 7-6 4-9v-14l-4-6-6-4h-11l-7 2-1 9 3 7 2 4-2 1-6-4-4-5-2-6v-7l4-8 7-6v-3l-6-2-1-3v-8l1-6 15-1 3-21 5-8 6-5z" fill="#DDD18B"/>
<path transform="translate(682,326)" d="m0 0h7l9 6 5 5v4l-8 3-2 3v5l6 3 3-2 1 2 1 29 4 23 8 41 2 14-1 15-3 15-2 7h-2v15l1 4-5 1-7 6-16 7-7 2-8 1h-12l-12-4-21-11-4-4v-2l17-1h17v-2l5-2 5-5 4-14 1-11v-15l-2-10-4-11 1-5 6-20 4-21 6 1 8-20 1-8-14-7-9-7-2-5 1-8 6-9 7-6z" fill="#FAF6F1"/>
<path transform="translate(350,688)" d="m0 0h2l3 10 4 13 8 14 4 6 11 14 2 3-1 5-7 8-5 3h-6l-10-7-6-4-8-1-6 4-1 1v5l2 4-1 1h-18l-3-5v-2l-4-2-1-4 6-4-1-7-4-7-4-2-14-1-5-2-4-5-1-3v-7l2-9h-6v-1l6-1 28-1 23-8z" fill="#C5CCC1"/>
<path transform="translate(185,296)" d="m0 0 9 1 5 4 1 2 1 20 10 28 7 14-1 3-9 1-16 6-12 6h-3l-2 4-8 8-7 5-6-1-8-6-4-6 1-8 9-11 2-4-1-7-2-7h-10l-1-1-2-10v-5l8-6 4-4 4 4 1 2h7l6-3 3-4 2-17 3-5z" fill="#C5CCC1"/>
<path transform="translate(538,687)" d="m0 0 5 2 17 9 14 5 12 2 15 1 6 2-4 3-4 2 5-2h4l1 3v9l-3 6-6 4-15 2-5 3-4 6v7l6 2-1 4-5 6-3 5-5-1h-11l-1-4 2-3-1-4-5-3h-11l-8 6-4 4-7 1-8-3-6-9-1-5 11-14 5-5 10-22 4-14z" fill="#C5CCC1"/>
<path transform="translate(567,152)" d="m0 0h6l4 7 5 4v4l-5 1v8l3 6 13 4 10 2 5 4 1 10-3 9h-3v2h-17l-6-1-2 4-5 2-11 2-15 8-6 5-2-2-7-20-8-17-18-20 2-5 4-8 6-5h8l8 6 7 5h9l7-2v-7l-1-5h10z" fill="#C5CCC1"/>
<path transform="translate(784,623)" d="m0 0 11 2 6 3-1 2-9 3-8 4-8 6-7 10-4 9-4 17-7 11-8 8-12 6-11 2h-8l-7-6-6-17-4-15-3-18h-2l1-3h2l1-14 1-4 4 2 9 10 3 3v2h4l2-4v4h9l6 1 1-11 6-7 7 1 6 4 3 4 4-2 7-7 9-5z" fill="#C5CCC0"/>
<path transform="translate(318,152)" d="m0 0 14 1 3 3-2 3 1 5 7 3h9l11-9 3-2h7l6 3 4 5 2 4-1 7-9 10-1 2h-2v2l-2 1-9 19-5 14-2 9-5-1-17-9-20-7-21-2-4-2-3-9v-8l8-7 16-2 4-2 5-8v-6l-6-2-1-2 7-9 1-3z" fill="#C5CCC1"/>
<path transform="translate(160,522)" d="m0 0h8v1l-9 2 3 3 8 5 4 4 12 5 16 7 8 3 9 1-2 5-8 15-5 14-2 6-1 22-3 12-3 1-1 3-3-9-3-6-2-2h-6l-3 2-1 3h-3l-2-23-4-3-12-3-3 7-4-1-2-4-7-4-1-3 2-12 1-1 9-1 4-9-1-7-7-8-3-4v-9l2-7h2v-2z" fill="#C5CCC0"/>
<path transform="translate(105,624)" d="m0 0h9l8 4 10 9 3 2 6-9h7l6 3 2 2v10l2 1h8l2-1v4h7l1-7 2-2h10l3 5 2 4 3 2-1 13-4 16-5 15-4 10h-19l-11-4-11-7-6-8-5-12-4-15-6-10-8-9-11-7-10-4 1-3z" fill="#C5CBC0"/>
<path transform="translate(726,530)" d="m0 0 19 2 4 1-1 7-4 7-6 8-1 6 3 12 10-1 1 1 1 10 1 3-1 3-7 3-2 4-4 1-3-5-4-1-8 2-4 5-1 9v4h-7l1 9-5 7-4-2-7-8-4-4h-1l-3-19-8-22-7-13-2-3v-3l24-6 15-9 4-2 2-4 1-1z" fill="#C5CBC0"/>
<path transform="translate(739,516)" d="m0 0h8l8 3v2l4 1 4 4 4 11 1 6 1 28 3 10 5 6 7 4 19 5-1 2-16 3 9 15-1 2-10-8-7-4-5-1h-8l-12 6-12 11-10 9-7 6h-6l-2-1 3 5v5l-3 1-18-18-2 18-6 1v-8l2-12v-9l-1-4 4-3 9 11 3 3h2l4-6v-9h7l-1-10 3-6 5-4 7-1 4 2 2 4h4l2-5 7-2-2-16h-10l-3-6-1-9 3-6 7-9 3-10-4-1 8-1 2-2 1-6-4 1h-9l-12-4v-1l6-2z" fill="#BD89A2"/>
<path transform="translate(257,571)" d="m0 0 7 1 14 9 2 4-9-4h-8l-6 5v13l11 9 2 4h6v2l4 2 7 12 3 7 2 1v-22l1-1h5l1 6v20l1 10h11l-2-14-4-17v-5h6l3 9 3 14v5h2l1-13 3-14 7-1 2 2 5 24 3-17 2-7 2-2 5 1-4 20-4 14-9 3-1 8-6 7-5 3-4 1h-10l-10-5-6-7-4-16-10-20v27l-5 1-1-1-1-36-9 2h-5l1 8 7 24v3l-7-1-4-8h-11l-2 8-6 1-1-3 7-26 2-9v-3l-3-1-2-9v-11l6-9 9-6z" fill="#C5CBC0"/>
<path transform="translate(142,526)" d="m0 0h5l-2 2-1 6v9l9 10 2 4-1 7-4 8-9 1-2 15 5 2 4 4 1 2 3 1 1-5 2-3 12 3 5 4 1 23h3l1-4 3-2h6l4 4 4 9 5 22-1 2h-5l-5-9h-10l-3 8h-7l2-12-8-5-7-6-4-5-8-7-9-6-4-2h-12l-11 4-10 7-1-2 9-13v-1l-15-2-1-2 17-6 10-6 5-10 2-13 1-30-2-1z" fill="#BD89A2"/>
<path transform="translate(581,99)" d="m0 0h2l2 11v8l7-3 9-6h2l-2 4-6 9-4 11v8l4 10 13 15 8 8 6 10 1 3v12l-6 11-3 2-8 1-3-2h3l2-9-1-10-6-4-16-3-6-3-3-6v-8l1-1h5l-2-5-4-3-3-6h-6l-1 1h-8l-2-1 2 5-1 7-7 3h-9l-9-7-6-4h-8l-6 5-5 10-5-5-1-7 4-11 4-6 6-4 10-2 25-1 13-2 6-3 6-9 4-9z" fill="#BD89A1"/>
<path transform="translate(608,707)" d="m0 0h6l6 10 3 7v9l-5 10-18 20-7 9-2 5v11l5 12 7 9-1 3-5-4-9-6-3-1-1 18-2 1-2-5-2-11-6-12-6-5-5-2-7-1-24-1-13-2-8-5-4-5-4-12 1-7 5-4 6 11 5 3 8 1 5-3 8-7 2-1h11l6 4 1 4-2 3v3h11l5 1 6-9 3-5-7-2v-7l4-6 3-3 7-2 11-1 6-4 2-5v-12l-7 3-3-1z" fill="#BD89A1"/>
<path transform="translate(309,99)" d="m0 0h2l3 19 6 11 5 4 4 2 6 1 32 1 8 2 6 4 7 10 1 5v8l-4 6h-2l-4-10-5-4-3-1h-7l-9 7-5 4h-9l-7-3-2-3 1-4 1-3-2-1-16-1-1 5-6 7 1 2 6 2v6l-6 9-8 3-12 1-7 6v8l3 10h-9l-6-7-3-7v-12l6-11 13-13 7-8 5-9 1-3v-10l-8-16-4-6 1-2 13 9h3z" fill="#BD89A1"/>
<path transform="translate(707,282)" d="m0 0h12l8 4 10 9 10 10 10 7 5 2h11l14-7 8-6-1 5-5 8-2 4 15 3 1 3-17 4-9 6-6 7-3 12v28l-4 11-7 7-8 4-13 1-2-2v-6l8-3 5-4 2-5-4-2 5-1v-16l-3-13-3-3-11-3-1-1v-13l-2-3-5-2 1-15v-2l-8-1-1-5-5-5-7-3-6 1-5 2-1 2-1-2 1-9 10-7z" fill="#BD89A2"/>
<path transform="translate(173,282)" d="m0 0h11l12 6 3 4v9l-2 1-3-4-9-1-9 2-3 10-1 12-5 6-5 2h-7l-4-6h-3l-2 4-5 4-2 1 1 8 1 7h10l3 8 1 7-6 9-5 6-1 8 4 6 9 6 2 1-2 4-3 2h-8l-12-5-6-6-4-14-1-31-3-9-6-7-12-6-12-2v-3l16-2-2-5-7-10v-2l4 2 9 7 8 3h12l10-5 12-11 9-9 10-6z" fill="#BD89A2"/>
<path transform="translate(278,707)" d="m0 0h6l-1 16 3 6 2 2 4 1 14 1 5 3 5 9v5l-6 4 2 5 3 3 2 4h18l-2-4v-5l6-5 7-1 8 4 9 7 2 1 9-1 7-7 3-7 4 3 1 5v8l-4 9-8 6-8 3-6 1-29 1-10 4-8 9-4 9-1 13-2-1-3-10v-7l-5 1-5 5-5 3h-2l2-5 7-11 2-6v-10l-4-9-7-9-2-4-4-2-10-11-5-10v-11l5-10z" fill="#BD89A2"/>
<path transform="translate(487,79)" d="m0 0h13l11 2 16 8 13 6h18l9-3 9-1-1 5-5 8-7 6-5 2h-19v16l-9 3h-5l-4-9h-2l-7 8-7 6-4 1-12-6-5-4-3-6v-5l7 7h8l5-3 3-5v-9l-3-6v-2l-6-2h-14l-8 3-6 5-4 5-1-2v-11l9-10 9-6z" fill="#C5CCC1"/>
<path transform="translate(208,720)" d="m0 0 2 1v11l3 11 7 8 5 2h8l8-5 6-6-1-9h-2v-2l-5-2-10-2v-2l2-1h15l8 4 6 10-1 11 12 1 4 5 1 2v6l-5 6-3 2 1 4 6 5 8 15 1 6-6 15-3-3-8-16-9-10-8-5-27-9-11-7-7-8-3-8-1-4v-24z" fill="#C5CCC1"/>
<path transform="translate(276,106)" d="m0 0h3l4 12v9l-5 9-7 7-5 3h-2l3 3 9 7 2 5-7 8-12 1 1 11-3 7-5 6-9 3h-7l-6-2v-2l10-3 5-5 1-7-3-5v-2l-4-2-7-3h-7l-7 5-7 10-2 5 1 14-5-1-5-12v-7l4-14 6-10 7-6 14-7 15-4 11-6 8-6 10-20z" fill="#C5CCC1"/>
<path transform="translate(612,105)" d="m0 0 4 2 3 8 7 11 9 8 13 6 23 8 10 9 6 9 4 12 1 5v8l-3 1-2 5-4 1-1-2-2-13-6-11-6-5-2-1h-8l-7 4-5 8v7l5 5 6 3 5 2v1l-9 1-13-2-6-4-2-5v-16l-9 1-6-7-1-9 2-4 6-2-3-5-8-8-4-9v-15z" fill="#C5CCC1"/>
<path transform="translate(74,328)" d="m0 0 7 1 9 6 6 7 3 6 1 8-1 9h10l5 3 2 3v10l-6 4v4l9 5 2 4-1 15-3 5-7 6-5 3-1-4 5-14v-6l-4-2h-11l-7 3-4 5-2 6v8l4 10 8 7 3 2-5 3-8-2-12-12-4-9-1-4v-15l3-10 10-21 3-12v-17l-6-11z" fill="#C5CCC1"/>
<path transform="translate(717,214)" d="m0 0h10l13 4 9 6 7 10 5 11 5 17 7 11 12 10 15 7-1 3-11 4h-8l-9-4-8-6-4-5v-2l-4 2-5 5-4 3-6-1-4-2-1-7 1-8-6 1h-10l-5-3-6-10-1-3v-9l3-5h2v8l3 6 4 3 9-1 6-5 3-7v-8l-6-8-9-6-3-1-13-1 1-7 1-1z" fill="#C5CCC1"/>
<path transform="translate(800,475)" d="m0 0 8 1 8 7 6 10 3 9v19l-5 12-8 15-4 12v8l4 14 3 7v3l-6-1-8-6-6-7-3-8v-17l-4 1h-9l-3-3-1-4v-9l5-3-1-5-5-3-2-6v-15l3-6 5-4 4 1-1 4-2 4v10l4 4h15l4-2 4-8v-17l-6-10-4-3-3-2z" fill="#C5CCC1"/>
<path transform="translate(159,215)" d="m0 0h22l3 3 1 6-16 1-7 3-7 9-2 4v7l4 7 7 5h7l5-5 1-2 1-9 3 1 2 4v10l-6 9-7 5-9 1h-4l-2 10-5 4-6 2-4-2-4-6v-2l-5 3-4 5-11 7-6 2h-7l-9-4-3-3 10-4 13-8 7-8 14-35 7-11 8-6z" fill="#C5CCC1"/>
<path transform="translate(388,79)" d="m0 0h13l13 4 6 4 6 5 4 8-2 5-4-2-7-6-4-1h-14l-9 2-4 10v9l6 7 7 1 5-3 4-3 2 1-4 8-5 5-7 1h-10l-5-3-5-9-3 1-6 7-5 1-7-5-2-10-1-4h-15l-8-3-8-7-6-10v-2h6l15 5 11 1 12-3 8-4 10-6z" fill="#C5CCC0"/>
<path transform="translate(812,328)" d="m0 0h3l-1 5-4 14-1 13 3 12 12 26 2 8-1 11-5 13-7 9-6 5h-9l-3-3 6-3 5-6 3-7v-14l-4-6-6-4h-11l-7 2-1 9 3 7 2 4-2 1-6-4-4-5-2-6v-7l4-8 7-6v-3l-6-2-1-3v-8l1-6 15-1 3-21 5-8 6-5z" fill="#C5CCC1"/>
<path transform="translate(388,786)" d="m0 0 9 1 6 3 7 7 1 4-5-2-5-3h-8l-5 5-1 2v8l4 11 3 2h14l13-4 5-8 4 2 1 3-3 7-10 10-8 4-7 2h-16l-10-3-21-11-6-2h-12l-16 4-5 3h-2l1-7 4-8 7-5 8-3 16-1 1-1v-12l6-4 8-1 7 8 3-3 4-6z" fill="#C5CCC1"/>
<path transform="translate(680,722)" d="m0 0 5 3v-2h3l3 8v11l-5 12-6 8-8 8-12 6-20 7-10 6-7 8-9 18h-2l-4-13 2-12 5-9 4-5h2l-1-7-4-5v-8l4-5 2-1h10v-13l3-6 7-6 6-2 10 1 3 1v2l-10 2-7 6 1 8 4 6 3 3 3 1h9l8-4 8-11 1-2v-9z" fill="#C5CCC1"/>
<path transform="translate(497,786)" d="m0 0h10l5 3 5 8 2 1 2-5 5-4 8 1 5 3 1 14 20 2 6 4 8 8 3 9-6-2-11-4h-19l-12 4-13 8-11 4h-18l-9-3-6-4-9-10-3-5 2-4 2-2 4 7 6 4 3 1h17l5-2 3-5 2-5v-11l-5-6h-7l-7 4-2 3-3-1 3-6 8-7z" fill="#C5CCC1"/>
<path transform="translate(513,590)" d="m0 0 8 1 6 3 4 3 2 13 1 3-4 10 1 4h3l3-7-1-8 3-1 4 2 1 2v7l-6 10h-2l8 12v2l-7-1-14-16v-2h-2l-1 16-1 6h-18l-1-1-1-26-21-2-2-1 2-6 5-2 3-6 3-3 6 2 11 8 3 1v-2h2v-11l1-9z" fill="#DACB8D"/>
<path transform="translate(615,612)" d="m0 0 5 1 3 3-1 5-5 9-2 2 1 4 5 8-1 4-4-2-10-11-5-7-1 1v17l3 4v6l-6 9-6 4-3 1h-12l-9-4-8-9-1-7h6l-7-1-1-24-1-5-3-1v-4l10 1 3 8v23l4-4 8-2v-19l-5-3 1-5 9 2 2 2v23l-2 8 5-2h3v-3h2v-8l2-11v-5l-2-5 1-1h5l9 11 4 4 3-7v-9z" fill="#C6CBC0"/>
<path transform="translate(604,711)" d="m0 0h4l1 3v9l-3 6-6 4-15 2-5 3-4 6v7l6 2-1 4-5 6-3 5-5-1h-11l-1-4 2-3-1-4-5-3h-11l-8 6-4 4-7 1-8-3-6-9v-4l5-1h8l17-5 13-7 4 1 3 7 8 7-1-13-1-8 16-5 16-8z" fill="#FCF9F3"/>
<path transform="translate(734,425)" d="m0 0 8 6 18 12 25 12 8 3-1 3-26 11-16 9-19 14-2 1 1-6 3-11 2-18z" fill="#FBF7F1"/>
<path transform="translate(285,709)" d="m0 0 8 6 8 5 9 5 15 4 3 3-2 4v14l9-10 2-3 8 1 15 7 14 3 9 1-1 6-8 8-9 1-10-7-6-4-8-1-6 4-1 1v5l2 4-1 1h-18l-3-5v-2l-4-2-1-4 6-4-1-7-4-7-4-2-14-1-5-2-4-5-1-3v-7z" fill="#FCF9F3"/>
<path transform="translate(185,296)" d="m0 0 9 1 2 2-1 5-5 5-6 10-5 14-3 7-20-1 3 5 7 6 5 2-1 4-6 9-4 12-3 18-5 1-8-7-2-4 1-8 9-11 2-4-1-7-2-7h-10l-1-1-2-10v-5l8-6 4-4 4 4 1 2h7l6-3 3-4 2-17 3-5z" fill="#FCF9F3"/>
<path transform="translate(318,152)" d="m0 0 14 1 3 3-2 3 1 5 7 3h9l11-9 3-2h7l6 3 4 5 2 6-7 2-16 2-8 4-9 5-5-1-12-12-2-1 1 3 1 15v3l-16 5-15 8-7 6-4-1-2-6v-8l8-7 16-2 4-2 5-8v-6l-6-2-1-2 7-9 1-3z" fill="#FCF9F3"/>
<path transform="translate(305,613)" d="m0 0h6l3 9 3 14v5h2l1-13 3-14 7-1 2 2 5 24 3-17 2-7 2-2 5 1-4 20-4 14-9 3-1 8-6 7-5 3-4 1h-10l-10-5-6-7-2-11 2 1 9 1 1-4v4h11l-2-14-4-17z" fill="#C5CABF"/>
<path transform="translate(567,152)" d="m0 0h6l4 7 5 4v4l-5 1v8l3 6 13 4 10 2 5 4 1 10-3 8-4-1-4-6-21-9-12-4-2-2 1-5 2-8v-6l-4 2-8 13-5-1-7-5-14-5-20-2 3-9 7-6h8l8 6 7 5h9l7-2v-7l-1-5h10z" fill="#FCF9F3"/>
<path transform="translate(682,326)" d="m0 0h7l9 6 5 5v4l-8 3-2 3v5l6 3 3-2 1 2 1 29 4 23-1 4-3-14-7-2-7-3-5-2-2 1 3-11 2-10-14-7-9-7-2-5 1-8 6-9 7-6z" fill="#F9F5EF"/>
<path transform="translate(376,593)" d="m0 0 3 1 2 16 3 3 4-2 6-2 1-4 6-2 4 4v5l6 2 3 5 1 8-6 4 2 5 2 8v5h-6l-3-8-1-5-7-1-1 15-20 1v-1l5-1-4-16-5-17-1-2h-10l1-7-1-10 2-2z" fill="#DBCD8C"/>
<path transform="translate(93,478)" d="m0 0 7 1 21 12 16 11 9 7 2 2-7 4-18 5h-6l2-3-1-9-4-8-5-5-3-1 4 12v10l-2 4-7 1-11-2-6-4-3-3-1-3v-11l3-10 7-8z" fill="#FCF8F3"/>
<path transform="translate(697,629)" d="m0 0 4 2 9 10 3 3 1 7-3 4-1 5-1 14 3-3 2-7 7-6 7 1 8 7 3 6v8l-7 9-5 4-7 3-5 1h-8l-3-5-5-15-5-27h-2l1-3h2l1-14z" fill="#FBF7F2"/>
<path transform="translate(733,533)" d="m0 0h16l-1 7-4 7-6 8-1 6 3 12 10-1 1 1 1 10 1 3-1 3-7 3-2 4-4 1-3-5-4-1-8 2-4 5-1 9v4h-7l1 9-5 7-4-2-7-8 1-4 5-5 7-14 5-14 5-1 15 1v-2l-5-2-6-5-3-2 1-6 8-16z" fill="#FBF8F2"/>
<path transform="translate(178,640)" d="m0 0h10l3 5 2 4 3 2-1 13-4 16-5 15-2 2h-12l-12-6-8-9-1-7 7-13 5-4 8 1 5 3 2 3 2 8 1-2v-10l-1-7-4-2v-10z" fill="#FBF8F2"/>
<path transform="translate(147,525)" d="m0 0h10l1 13 5 13 7 14-1 4-7 4-4 5v2h10l8 1 4 9 7 20v2h-7v2l-3 2-1 3h-3l-2-23-4-3-12-3-3 7-4-1-2-4-7-4-1-3 2-12 1-1 9-1 4-9-1-7-7-8-3-4v-9l2-7h2z" fill="#FCF8F2"/>
<path transform="translate(89,474)" d="m0 0 6 2 2 2-7 3-6 7-3 10v11l3 5 6 4 11 2 7-1 1-5v-8l-3-12 4 1 7 8 3 9v5l-2 2 2 2-21 8-16 8-4 1-6-2-5-10-2-11v-12l4-13 9-10 7-5z" fill="#C7CDC1"/>
<path transform="translate(573,250)" d="m0 0h12l8 3 6 7 4 10-3 8-6 7-2-1-4-8-5-4-4-2-6 1-3 3h-2l-2 5 1 7 3 7h-4l-6-8-3-7v-9l6-12 6-5z" fill="#C5CCC1"/>
<path transform="translate(477,664)" d="m0 0 9 1 8 3 8 8 3 7v10l-5 10-7 6-5 2h-8l-8-2-5-3-2-4-2-12 2-1 8 2h9l5-3 2-3v-8l-7-8-6-3z" fill="#C5CCC1"/>
<path transform="translate(404,208)" d="m0 0h9l6 3 5 4 2 9 2 2v4l-6-1h-15l-4 4-1 2v11l4 4 12 4-2 2h-7l-10-3-7-5-6-10v-14l5-8 6-5z" fill="#C5CCC1"/>
<path transform="translate(478,209)" d="m0 0h10l9 4 6 8 2 5v10l-3 7-6 8-8 4h-12l3-3 6-3 5-9-1-7-5-3-5-1h-9l-4 1-1-1v-9l4-6 6-4z" fill="#C6CDC1"/>
<path transform="translate(628,572)" d="m0 0h8l10 5 6 7 4 9v7l-1 6 1 2-1 5-1-3-8 3-4 3h-12l-8-3v-2l-2-1 3-3 7-4 5-7v-9l-5-4-2-1-10-1-2-1 2-4 7-3z" fill="#C5CCC0"/>
<path transform="translate(642,367)" d="m0 0h1l2 9 4 6 7 7 1 3v15l-2 7-1 8-3-1-14-20-9-11-11-12-6-7 4 2 5 1 5-2 14-3h3z" fill="#F4EBE7"/>
<path transform="translate(304,249)" d="m0 0h11l8 4 7 7 4 9v7l-4 10-4 5h-2v-13l-4-7-3-2h-7l-9 8-4 7h-2l-6-9v-10l4-8 8-7z" fill="#C5CCC1"/>
<path transform="translate(529,373)" d="m0 0 7 1 9 6 3 3h10l2 2v7l-6 10-4 5-5 2h-7l-6-4-8-7-6-4-1-3 4-10 5-6z" fill="#382013"/>
<path transform="translate(463,433)" d="m0 0 5 3 5 10 4 16 1 5v8l-8 3h-13l-5-3-4-6v-10l5-14 5-8z" fill="#F4ECE9"/>
<path transform="translate(406,664)" d="m0 0h9v2l-8 4-4 4-1 3v7l3 6 3 2h14l4-3h2l-2 9-4 9-10 4h-8l-10-5-6-7-2-5v-12l5-9 7-6z" fill="#C6CCC0"/>
<path transform="translate(254,303)" d="m0 0 7 1 10 5v2l-13 8-3 5v6l3 5 6 3h16l-3 3-9 5-15 2-10-6-5-6-2-7v-11l3-6 8-7z" fill="#C6CCC1"/>
<path transform="translate(635,302)" d="m0 0 7 1 8 7v2h2l4 5v11l-3 7-4 5-10 6-3 1h-9l-11-4-2-4 7-1 9-1 5-5v-7l-3-7-10-7v-2z" fill="#C5CCC1"/>
<path transform="translate(113,534)" d="m0 0h2v4l1 3v7l-5 6-3 2h-5l-3-2-1 7v7l-3 11-9 8-8 5h-3l2-9 4-11 1-6v-12l-1-2-3-2 14-8 15-6z" fill="#C6CBC0"/>
<path transform="translate(211,401)" d="m0 0h13l8 4 5 5 3 5 2 12-4-2-7-8-2-1h-8l-5 4-2 5v11l2 3v3l-6-1-11-6-3-6-1-9 4-10 7-7z" fill="#C6CDC1"/>
<path transform="translate(206,480)" d="m0 0h8l1 3v14l2 4 3 2 7 1 8-3 5-8 2-4 1 4-5 15-4 6-4 3h-2l1 3-6-2-14-5-17-3-23-1v-1h24l4 1-1-3v-14l4-8 3-3z" fill="#C6C8BF"/>
<path transform="translate(677,480)" d="m0 0h8l5 3 6 9v8l-3 10-4 5-10 5h-9l-17-8 4-2 5-4 2-2 1 1 7-3 4-8z" fill="#C5CBC0"/>
<path transform="translate(350,688)" d="m0 0h2l3 10 4 13 8 14 1 5-6-2-17-11-2-2-32-7-2-1v-2l26-9z" fill="#FDFAF4"/>
<path transform="translate(713,536)" d="m0 0h2l-3 9-6 9-6 8-3 3-2 22-3 9h-2l-10-26-6-11-2-3v-3l24-6 15-9z" fill="#FDFAF4"/>
<path transform="translate(365,190)" d="m0 0h2l-1 5-7 14-5 14-2 9-5-1-17-9-23-8 3-2 16-4 16-1 5-5 12-9z" fill="#FDFAF4"/>
<path transform="translate(538,687)" d="m0 0 5 2 17 9 22 8-1 2-14 4h-11l-10-1-1 6-12 9-7 3-3-1 10-22 4-14z" fill="#FDFAF4"/>
<path transform="translate(200,323)" d="m0 0 2 2 9 26 7 14-1 3-9 1-16 6-12 6h-3l2-6 7-11 7-10 2-15 4-15z" fill="#FDFAF4"/>
<path transform="translate(174,538)" d="m0 0 6 1 19 9 11 4 9 1-2 5-8 15-5 14-3 9-3-4-4-15v-12l-6-7-5-4-7-12z" fill="#FDFAF4"/>
<path transform="translate(523,191)" d="m0 0 6 1 10 6 5 5 2 3 5 1 19 1 9 3v4l-6 3-11 2-15 8-6 5-2-2-7-20-8-17z" fill="#FDFAF4"/>
<path transform="translate(305,613)" d="m0 0h6l3 9 3 14v5h2l1-13 3-14 7-1 2 2 5 24 3-17 2-7 2-2 5 1-4 20-4 14-4 2h-5l-2-10-3-17-1 1-2 16-2 3-2 6h-7l-2-5-6-26z" fill="#1D0F0B"/>
<path transform="translate(388,613)" d="m0 0h16l7 3 1 1v12l-3 2 2 5 2 8v5h-6l-3-8-1-5-7-1-1 15h-6l-1-3-1-13v-18z" fill="#392114"/>
<path transform="translate(680,395)" d="m0 0 1 3 2 4 7 6 5 8 1 4v11l-6 7-9 3h-4l-1-19-3-6-2-1-1 3 1-10 2-11 6 1z" fill="#C6CCC0"/>
<path transform="translate(271,613)" d="m0 0 7 1 4 5 8 16 2 1v-22l1-1h5l1 6v30h-9l-3-5-11-22v27l-5 1-1-1-1-33z" fill="#1F110B"/>
<path transform="translate(180,613)" d="m0 0h6l4 4 4 9 5 22-1 2h-5l-5-9h-10l-3 8h-7l1-6 2-5 4-19 3-5z" fill="#382013"/>
<path transform="translate(242,613)" d="m0 0h9l3 4 9 30v3l-7-1-4-8h-11l-2 8-6 1-1-3 7-26z" fill="#1C0F0A"/>
<path transform="translate(361,613)" d="m0 0h9l4 9 7 25-1 3-7-1-2-9h-11l-2 7-2 2h-6l3-12 7-23z" fill="#1F110B"/>
<path transform="translate(693,612)" d="m0 0 5 5 8 9h2l4-6v-8h6l2 2-1 9-5 10-4-1 8 9v5l-3 1-18-18-2 18-6 1v-8l2-12v-9l-1-4z" fill="#382014"/>
<path transform="translate(682,326)" d="m0 0h7l2 2-3 1-4 15-6 11-3 6 1 2-5-2-6-5-2-5 1-8 6-9 7-6z" fill="#DBCD8C"/>
<path transform="translate(537,611)" d="m0 0 6 2 1 2v7l-6 10h-2l8 12v2l-7-1-14-16v-2h-2l-1 16-1 5h-6l2-18v-11l-1-3 1-3 5 1 9 11 4 3 4-8-1-8z" fill="#1E100B"/>
<path transform="translate(615,612)" d="m0 0 5 1 3 3-1 5-5 9-2 2 1 4 5 8-1 4-4-2-10-11-5-7-2 6-2 13h-6l2-16 1-11-2-5 1-1h5l9 11 4 4 3-7v-9z" fill="#1C0F0A"/>
<path transform="translate(642,367)" d="m0 0h1l2 9 4 6 4 5-5-1-11 6-6 1-15-16-5-6 4 2 5 1 5-2 14-3h3z" fill="#DBCC8D"/>
<path transform="translate(730,358)" d="m0 0 6 1 5 8 3 13 1 3 4 1-2 6-6 5-6 1-2-3-3-20-2-4v-9z" fill="#F8F1ED"/>
<path transform="translate(659,606)" d="m0 0h2v9h21l-1 9-3 10-3 5-11 8h-4l-1-5 9-7 6-9 2-5h-21l-1-8 2-6z" fill="#20110B"/>
<path transform="translate(738,323)" d="m0 0 5 2 9 7-1 13-2 5-5-1-11-3-1-1 1-17z" fill="#F8F3EE"/>
<path transform="translate(689,370)" d="m0 0 12 5 2-3 2 20 3 15-1 4-3-14-7-2-7-3-5-2-2 1 3-11z" fill="#D8C78E"/>
<path transform="translate(207,613)" d="m0 0h6v30h14l1 5-1 1-22 1v-31z" fill="#382013"/>
<path transform="translate(287,497)" d="m0 0 9 1h4l2 1-11 11-15 11-14 7-5 1h-7v-1l13-2 1-7 9-6 5-4 6-9z" fill="#D9C98D"/>
<path transform="translate(701,295)" d="m0 0 8 1 7 5 3 4-1 5-6 4-5 6-1 3-6-2-2-5 4-2-2-5-5-6 1-5z" fill="#F8F2EE"/>
<path transform="translate(305,613)" d="m0 0h6l3 9 3 14v5h2l1-13 1-5 4-1v11l-2 9-3 7h-7l-2-5-6-26z" fill="#1C0F0A"/>
<path transform="translate(599,400)" d="m0 0 7 6 9 9-1 2h-3l-6 5-9 1-7-6-1-6 7-6 4-3z" fill="#DCCF8C"/>
<path transform="translate(291,818)" d="m0 0h5l7 8v7l-4 5h-8l-7-3-1-1v-8l4-6z" fill="#B9CAC2"/>
<path transform="translate(477,615)" d="m0 0 26 1 3 5v19l-1 8h-5l-1-26-21-2-2-1z" fill="#21120C"/>
<path transform="translate(595,819)" d="m0 0h6l6 5 1 5-2 5-5 4h-8l-5-6v-6l4-5z" fill="#B8C9C2"/>
<path transform="translate(596,81)" d="m0 0 7 1 4 4 1 6-2 5-8 4-6-2-3-6v-7l4-4z" fill="#B9C8C2"/>
<path transform="translate(246,619)" d="m0 0 3 4 3 10 3 1 1-7 2 3 5 17v3l-7-1-4-8-11-1 1-10 3-10z" fill="#382013"/>
<path transform="translate(443,623)" d="m0 0h7l5 3 2 7-3 7-2 1h-10l-4-4v-8l3-5z" fill="#382013"/>
<path transform="translate(815,603)" d="m0 0 5 2 3 4v8l-4 4-8 1-5-3-2-9 4-5z" fill="#B8CAC2"/>
<path transform="translate(291,82)" d="m0 0h7l5 5-1 9-7 4-8-1-3-3v-7l3-5z" fill="#B8C4BF"/>
<path transform="translate(573,614)" d="m0 0 9 2 2 2v23l-2 7h-13l1-5 7-2v-19l-5-3z" fill="#20110B"/>
<path transform="translate(77,297)" d="m0 0 7 2 3 5-1 8-2 2-7 2-7-3-1-1v-8l2-4z" fill="#BD94A7"/>
<path transform="translate(73,604)" d="m0 0h7l7 6v6l-5 5-2 1h-6l-4-4-1-2v-7z" fill="#B9C4C0"/>
<path transform="translate(811,297)" d="m0 0 5 1 5 4 2 4-1 6-5 4-7-1-5-4 1-9z" fill="#B8C4C0"/>
<path transform="translate(406,615)" d="m0 0 5 1 1 1v12l-3 2 2 5 2 8v5h-6l-3-8-1-5-5-2v-3l6-3 1-1z" fill="#1D100B"/>
<path transform="translate(106,494)" d="m0 0 4 1 7 8 3 9v5l-2 2 2 2-15 3v-4l3-1 1-5v-8z" fill="#D5D6BD"/>
<path transform="translate(361,613)" d="m0 0h4v9l-3 8-1 1v8h-2l-1 8-2 2h-6l3-12 7-23z" fill="#1D0F0B"/>
<path transform="translate(552,615)" d="m0 0 10 1 2 6v26h-6l-1-27-5-2z" fill="#1A0E0A"/>
<path transform="translate(388,617)" d="m0 0 5 2 2 3v28h-6l-1-3z" fill="#180D09"/>
<path transform="translate(270,576)" d="m0 0 9 6v3l-8-4h-8l-6 5v13l11 9 2 4h6l-4 2-3 2v-3h-6v-4-2l-5-2-4-6-2-7-1-6 7-8 12 1z" fill="#D0D4C1"/>
<path transform="translate(693,612)" d="m0 0 5 5v8h-2v16l-1 6-6 1v-8l2-12v-9l-1-4z" fill="#1C0F0A"/>
<path transform="translate(727,361)" d="m0 0h1l2 10 2 8 2 14 1 3v7l-3-1-1-9-2-1-1 6h-1l-2-12v-19z" fill="#D1D6C1"/>
<path transform="translate(780,496)" d="m0 0 4 1-1 4-2 4v10l4 4 13 1v1h-15l-7-6v-2h-3v8h-1v-15l3-6z" fill="#D1D7C2"/>
<path transform="translate(711,243)" d="m0 0h2v8l3 6 4 3h9l-3 3-5 1-2 1 1 7-4-1-7-11-1-3v-9z" fill="#D1D7C2"/>
<path transform="translate(680,722)" d="m0 0 5 3v-2h3l3 8v11l-1-3h-2v2l-5 1-3-1v2h-2l2-5 1-2v-9z" fill="#D1D7C2"/>
<path transform="translate(273,619)" d="m0 0 2 3 1 3v24l-5 1-1-1v-25h3z" fill="#1A0E0A"/>
<path transform="translate(399,603)" d="m0 0 5 2 1 5v2l6 2 3 5 1 8-3 2-1-12-7-3-17-1 3-3 4-1 1-4z" fill="#D9C88D"/>
<path transform="translate(599,710)" d="m0 0 4 1-4 3-5 4-16 8-3 1h-7l2-1 1-3 7-3 10-5 10-4z" fill="#B9C8C2"/>
<path transform="translate(595,621)" d="m0 0 4 2 2 4-3 13-1 7h-6l2-16z" fill="#1D0F0B"/>
<path transform="translate(325,613)" d="m0 0h5l2 2 2 12-1 3-2 1-2 4-2-12-2 1v-2l-3 1 1-9z" fill="#1E100B"/>
<path transform="translate(173,628)" d="m0 0h3l2 7 1 2 6 1v1l-7 2-3 8h-7l1-6 2-5z" fill="#1F110B"/>
<path transform="translate(677,480)" d="m0 0h8l5 3 3 4-1 2-1-1-8 1-3 4h-2l-2 7-2 1 2-7z" fill="#D1D7C2"/>
<path transform="translate(110,403)" d="m0 0 3 4 2 9 3 1-8 7-5 3-1-4 5-14z" fill="#D1D7C2"/>
<path transform="translate(163,693)" d="m0 0 9 3 12 1-2 8h-19v-1h9l-1-5-7-2z" fill="#CFD6C1"/>
<path transform="translate(635,332)" d="m0 0 1 3-8 7-1 3 10-1 6-1-4 3-3 1h-9l-11-4-2-4 7-1 9-1z" fill="#D1D7C2"/>
<path transform="translate(293,613)" d="m0 0h5l1 6-1 21h-1v-9l-4 2-1-3v-16z" fill="#1B0F0A"/>
<path transform="translate(476,619)" d="m0 0 23 2 1 1v26h-1l-1-18-9-5-7-3-6-2z" fill="#D0B494"/>
<path transform="translate(70,544)" d="m0 0 5 1v2h5l3-2 3 1-9 6-9 3-4-4 2-4z" fill="#1D0F0B"/>
<path transform="translate(323,622)" d="m0 0h2v11l-2 9-3 7-3-1h2l-2-3v-4h2l1-13 1-5z" fill="#22130C"/>
<path transform="translate(647,469)" d="m0 0 3 1 2 5v6l-3 1h-9l1-6z" fill="#E6D4D7"/>
<path transform="translate(77,301)" d="m0 0 4 1 6 2-1 8-7-1-4 1-3-5h2l1-4z" fill="#BDC8C3"/>
<path transform="translate(635,302)" d="m0 0 7 1 8 7v2h2l4 5-1 4-4-6-7-6v-2l-9-1-6 3h-3l2 5-5-2-1-3z" fill="#D1D7C2"/>
<path transform="translate(695,303)" d="m0 0 5 5 3 4v4h-5l1 3-4-1-16-1v-1l15-1-1-2z" fill="#C7C2BB"/>
<path transform="translate(333,627)" d="m0 0 2 2 1 6v14l-5-1-1-8v-9l3-1z" fill="#1B0E0A"/>
<path transform="translate(399,618)" d="m0 0 5 1 2 2v6l-3 3h-6l-1-1v-8z" fill="#E5D5CE"/>
<path transform="translate(292,630)" d="m0 0 2 2 3-1 1 8h1v6l-6 2-3-7-1-5 3 1z" fill="#3B2216"/>
<path transform="translate(311,528)" d="m0 0 1 4 2 3-6 9h-5v-3l-3 2 2-4z" fill="#E0D695"/>
<path transform="translate(246,619)" d="m0 0 3 4 3 11-1 1h-7l-1-1 1-11z" fill="#E6D3D3"/>
<path transform="translate(326,621)" d="m0 0 2 2 3 17v9h-2l-3-9-1-2v-14z" fill="#CDC9BC"/>
<path transform="translate(555,621)" d="m0 0h2l1 3v24h6v-24h1v23l5-4-1 5h13v1h-25l-1-24z" fill="#C099A7"/>
<path transform="translate(258,635)" d="m0 0 2 1 3 11v3l-7-1-2-4 1-8h3z" fill="#1E100B"/>
<path transform="translate(535,612)" d="m0 0 3 4-1 7-4 6-4-3 1-4 3-8z" fill="#EFE5DD"/>
<path transform="translate(174,215)" d="m0 0h7l3 3 1 6h-12z" fill="#D1D7C2"/>
<path transform="translate(630,629)" d="m0 0h20l-1 4h-19z" fill="#190D09"/>
<path transform="translate(181,618)" d="m0 0 2 1 4 12-1 4h-6l-1-3z" fill="#BD87A1"/>
<path transform="translate(167,569)" d="m0 0 1 2-1 2h2l-2 6-4 2h-5v-4l5-6z" fill="#C7CEC1"/>
<path transform="translate(365,618)" d="m0 0 2 3 2 9-1 5h-7l2-9z" fill="#D2B892"/>
<path transform="translate(208,480)" d="m0 0h6l1 3v14l1 4-3-3-1-7h-6l-1-6 4-1 3 1 1-4h-5z" fill="#D0D6C1"/>
<path transform="translate(156,339)" d="m0 0h14l-3 2-1 7h-4l-6-6z" fill="#D0D6C1"/>
<path transform="translate(563,820)" d="m0 0h5l7 3 2 7-6-2-9-4z" fill="#BAC8C1"/>
<path transform="translate(208,720)" d="m0 0 2 1v14l-3-1-1-7-3-1-1 12h-1v-16z" fill="#D0D6C1"/>
<path transform="translate(111,535)" d="m0 0 2 1-4 2v2l-3 1-2 2-2-1-2 4-4-1-3-3 15-6z" fill="#CBC4BA"/>
<path transform="translate(138,232)" d="m0 0h1v5l-3 5-6 13-3 4 2-9 6-15z" fill="#BBC9C1"/>
<path transform="translate(726,368)" d="m0 0 3 1 2 5v13l-5-2z" fill="#DDD38C"/>
<path transform="translate(361,630)" d="m0 0 1 2-1 3 7-1 2-3 1 9h-11l-1 2 1-4v-7z" fill="#392114"/>
<path transform="translate(280,111)" d="m0 0 2 3 1 4v9l-4 8-2-8 2-6z" fill="#D1D7C2"/>
<path transform="translate(338,636)" d="m0 0 1 3h4l-2 9-4 2h-5l2-2 2 1v-10z" fill="#392114"/>
<path transform="translate(160,522)" d="m0 0h8v1l-9 2 3 3 8 5-2 1-10-3-1 3v-9h-7v-1z" fill="#CBC0B7"/>
<path transform="translate(223,643)" d="m0 0 5 1-1 5h-11v-3l2-2z" fill="#1A0E0A"/>
<path transform="translate(404,208)" d="m0 0h9l6 3 5 4 2 9 2 2v4l-6-1 4-2-3-4-2-9-4-2-5-2h-11z" fill="#D1D7C2"/>
<path transform="translate(481,116)" d="m0 0 7 7 1 3 4 4v2l-4-1-5-4-3-6z" fill="#C6CBC0"/>
<path transform="translate(99,287)" d="m0 0 2 1-2 2 5 1 1 4-5 1-9-5 1-2z" fill="#BAC7C1"/>
<path transform="translate(376,306)" d="m0 0 4 2 1 5-3 4-4-2-2-3z" fill="#1C0F0A"/>
<path transform="translate(811,297)" d="m0 0 5 1 1 8-4-4-3 3-4 1 1-6z" fill="#BC96A8"/>
<path transform="translate(332,619)" d="m0 0h1l1 8-1 3-2 1-2 4-2-12-1-3h2v2h3z" fill="#382013"/>
<path transform="translate(677,423)" d="m0 0 2 2 2 11v3l3 1-7 1z" fill="#D1D7C2"/>
<path transform="translate(727,361)" d="m0 0h1v7h-2l1 17 2 3-1 10h-1l-2-12v-19z" fill="#C299A3"/>
<path transform="translate(193,642)" d="m0 0h5l1 7-1 1h-5l-2-3 1-4z" fill="#1E100B"/>
<path transform="translate(463,820)" d="m0 0 4 3 2 2v2l7 6 10 4v1h-6l-8-5-9-10z" fill="#BEA2AE"/>
<path transform="translate(711,243)" d="m0 0h2v8l1 5-5-2-1 3v-9z" fill="#D3D6B9"/>
<path transform="translate(709,254)" d="m0 0 4 1 3 4v5l-5-1-2-3z" fill="#C5CCC1"/>
<path transform="translate(287,84)" d="m0 0 4 2-4 2 1 8 5 2v1h-6l-3-3v-7z" fill="#BD98A9"/>
<path transform="translate(595,85)" d="m0 0 1 2-2 7-1 2h-3l-1-3v-7z" fill="#BD95A7"/>
<path transform="translate(486,792)" d="m0 0 6 1v2l-7 4-2 3-3-1 3-6z" fill="#C2A7AF"/>
<path transform="translate(648,723)" d="m0 0 10 1 3 1v2l-12 1v-2l-2-1z" fill="#BCCAC2"/>
<path transform="translate(496,123)" d="m0 0 2 1-3 7 1 3-4-2-1-4-3-2v-2z" fill="#D1D7C2"/>
<path transform="translate(778,500)" d="m0 0h2l-1 6-3 4h-3v-7z" fill="#C5CCC1"/>
<path transform="translate(673,397)" d="m0 0h3l2 6-4 8h-1z" fill="#D7D0C8"/>
<path transform="translate(815,603)" d="m0 0 5 2 1 3-11-1-3 2-2 3 1-5 5-3z" fill="#BD98A9"/>
<path transform="translate(690,178)" d="m0 0h1l1 5v8l-3 1-2 2v-9h2z" fill="#D1D7C2"/>
<path transform="translate(470,822)" d="m0 0 7 2 14 1v1h-10v2l-4 1-2-1v-2l-4-1z" fill="#D1D7C2"/>
<path transform="translate(190,615)" d="m0 0 6 2 1 2-2 6-3-1-2-4z" fill="#F1E8E6"/>
<path transform="translate(713,612)" d="m0 0h5l2 2v6h-2l-1 2-2-4h-1z" fill="#21120C"/>
<path transform="translate(282,795)" d="m0 0 2 4-3 10-3 7-3-3 1-2 4-5 1-6z" fill="#D0D6C1"/>
<path transform="translate(236,500)" d="m0 0 1 2-3 4h-12l-5-3h3l7 1 8-3z" fill="#D1D7C2"/>
<path transform="translate(402,672)" d="m0 0 2 1-2 4v9l-5-5 1-6z" fill="#D1D7C2"/>
<path transform="translate(444,624)" d="m0 0h7l3 3v2h-9l-2-4z" fill="#170C09"/>
<path transform="translate(694,330)" d="m0 0 4 2 5 5v4l-7 1 3-3-2-1z" fill="#CFB396"/>
<path transform="translate(564,733)" d="m0 0 2 4v13l-4-2v-3l2-3z" fill="#D1D7C2"/>
<path transform="translate(454,630)" d="m0 0h2l1 3-3 7-4-1z" fill="#1B0E0A"/>
<path transform="translate(234,192)" d="m0 0 8 1-1 3h-9l-2-1v-2z" fill="#BFCCC2"/>
<path transform="translate(323,640)" d="m0 0 1 4-2 6-4 1-7-2v-5l2 4h7l2-6z" fill="#BD8BA2"/>
<path transform="translate(275,621)" d="m0 0 3 3-1 26-3-1h2z" fill="#C6A9AD"/>
<path transform="translate(198,618)" d="m0 0h1l-1 9-3 1-1 3-1-7 2-1 1-4z" fill="#B992A0"/>
<path transform="translate(167,569)" d="m0 0 1 2-1 2h2l-2 6h-4l2-7-2-1z" fill="#D1D7C2"/>
<path transform="translate(195,628)" d="m0 0 4 3v10l-1-3h-2l-1-2z" fill="#F1E9E4"/>
<path transform="translate(404,613)" d="m0 0 7 1 3 5 1 8-3 2-1-12-7-3z" fill="#C9A59B"/>
<path transform="translate(477,664)" d="m0 0 9 1 8 3v1h-7v-2l-6-1-1 2-4-2z" fill="#D0D5BE"/>
<path transform="translate(206,614)" d="m0 0h5v6l-5 1z" fill="#180C09"/>
<path transform="translate(551,405)" d="m0 0v3h-2v2h5v1l-7 1v-2l-6 1-3-2 10-2z" fill="#C39FA8"/>
<path transform="translate(270,576)" d="m0 0 9 6v3l-11-5 2-1z" fill="#D2D6BD"/>
<path transform="translate(356,791)" d="m0 0h3l-1 5-2 2h-3v-5z" fill="#B9CAC2"/>
<path transform="translate(208,192)" d="m0 0h1l1 8-5-1-2-6 5 2z" fill="#D2D8C3"/>
<path transform="translate(544,737)" d="m0 0 2 1-8 5h-5l1-3z" fill="#BACAC2"/>
<path transform="translate(326,621)" d="m0 0 2 2 1 11-2-3-2 2v-9z" fill="#BD87A1"/>
<path transform="translate(595,621)" d="m0 0 4 2 2 4-2 2v-2l-4 2-1-4z" fill="#392114"/>
<path transform="translate(102,521)" d="m0 0h4l1 2 7-1-3 2-9 3z" fill="#CBBAB4"/>
<path transform="translate(701,353)" d="m0 0 2 2v16h-1l-1-12-3-3z" fill="#C08E9E"/>
<path transform="translate(138,232)" d="m0 0h1v5l-5 6-1-4 3-6z" fill="#BCBEBB"/>
<path transform="translate(311,528)" d="m0 0 1 2-9 11-3 2 2-4z" fill="#CBAA98"/>
<path transform="translate(96,528)" d="m0 0 3 1-12 6-2-1v-2z" fill="#C8AFB4"/>
<path transform="translate(464,689)" d="m0 0 7 2-3 3-4 1-1-5z" fill="#D1D7C2"/>
<path transform="translate(175,651)" d="m0 0 5 3 1 7-5-4z" fill="#D0D6C1"/>
<path transform="translate(711,641)" d="m0 0 5 2v-2h2v5l-3 1-4-4z" fill="#21120C"/>
<path transform="translate(605,89)" d="m0 0 3 3-2 5-3 2h-3l1-3h4l-1-3z" fill="#BC91A5"/>
<path transform="translate(672,403)" d="m0 0h1v9l2 3-1 3-3-3-1 3 1-10z" fill="#C4A8AE"/>
</svg>
